ModelForces
version=1
nRows=4
nColumns=155
inDegrees=no

This file contains the forces exerted on a model during a simulation.

A force is a generalized force, meaning that it can be either a force (N) or a torque (Nm).

Units are S.I. units (second, meters, Newtons, ...)
Angles are in degrees.

endheader
time	glut_med1_r	glut_med2_r	glut_med3_r	glut_min1_r	glut_min2_r	glut_min3_r	semimem_r	semiten_r	bifemlh_r	bifemsh_r	sar_r	add_long_r	add_brev_r	add_mag1_r	add_mag2_r	add_mag3_r	tfl_r	pect_r	grac_r	glut_max1_r	glut_max2_r	glut_max3_r	iliacus_r	psoas_r	quad_fem_r	gem_r	peri_r	rect_fem_r	vas_med_r	vas_int_r	vas_lat_r	med_gas_r	lat_gas_r	soleus_r	tib_post_r	flex_dig_r	flex_hal_r	tib_ant_r	per_brev_r	per_long_r	per_tert_r	ext_dig_r	ext_hal_r	glut_med1_l	glut_med2_l	glut_med3_l	glut_min1_l	glut_min2_l	glut_min3_l	semimem_l	semiten_l	bifemlh_l	bifemsh_l	sar_l	add_long_l	add_brev_l	add_mag1_l	add_mag2_l	add_mag3_l	tfl_l	pect_l	grac_l	glut_max1_l	glut_max2_l	glut_max3_l	iliacus_l	psoas_l	quad_fem_l	gem_l	peri_l	rect_fem_l	vas_med_l	vas_int_l	vas_lat_l	med_gas_l	lat_gas_l	soleus_l	tib_post_l	flex_dig_l	flex_hal_l	tib_ant_l	per_brev_l	per_long_l	per_tert_l	ext_dig_l	ext_hal_l	ercspn_r	ercspn_l	intobl_r	intobl_l	extobl_r	extobl_l	femur_lat_meniscii_r.femur_lat_r.force.X	femur_lat_meniscii_r.femur_lat_r.force.Y	femur_lat_meniscii_r.femur_lat_r.force.Z	femur_lat_meniscii_r.femur_lat_r.torque.X	femur_lat_meniscii_r.femur_lat_r.torque.Y	femur_lat_meniscii_r.femur_lat_r.torque.Z	femur_lat_meniscii_r.meniscus_lat_r.force.X	femur_lat_meniscii_r.meniscus_lat_r.force.Y	femur_lat_meniscii_r.meniscus_lat_r.force.Z	femur_lat_meniscii_r.meniscus_lat_r.torque.X	femur_lat_meniscii_r.meniscus_lat_r.torque.Y	femur_lat_meniscii_r.meniscus_lat_r.torque.Z	femur_med_meniscii_r.femur_med_r.force.X	femur_med_meniscii_r.femur_med_r.force.Y	femur_med_meniscii_r.femur_med_r.force.Z	femur_med_meniscii_r.femur_med_r.torque.X	femur_med_meniscii_r.femur_med_r.torque.Y	femur_med_meniscii_r.femur_med_r.torque.Z	femur_med_meniscii_r.meniscus_med_r.force.X	femur_med_meniscii_r.meniscus_med_r.force.Y	femur_med_meniscii_r.meniscus_med_r.force.Z	femur_med_meniscii_r.meniscus_med_r.torque.X	femur_med_meniscii_r.meniscus_med_r.torque.Y	femur_med_meniscii_r.meniscus_med_r.torque.Z	femur_med_tibia_r.tibia_upper_r.force.X	femur_med_tibia_r.tibia_upper_r.force.Y	femur_med_tibia_r.tibia_upper_r.force.Z	femur_med_tibia_r.tibia_upper_r.torque.X	femur_med_tibia_r.tibia_upper_r.torque.Y	femur_med_tibia_r.tibia_upper_r.torque.Z	femur_med_tibia_r.femur_med_r.force.X	femur_med_tibia_r.femur_med_r.force.Y	femur_med_tibia_r.femur_med_r.force.Z	femur_med_tibia_r.femur_med_r.torque.X	femur_med_tibia_r.femur_med_r.torque.Y	femur_med_tibia_r.femur_med_r.torque.Z	femur_lat_tibia_r.tibia_upper_r.force.X	femur_lat_tibia_r.tibia_upper_r.force.Y	femur_lat_tibia_r.tibia_upper_r.force.Z	femur_lat_tibia_r.tibia_upper_r.torque.X	femur_lat_tibia_r.tibia_upper_r.torque.Y	femur_lat_tibia_r.tibia_upper_r.torque.Z	femur_lat_tibia_r.femur_lat_r.force.X	femur_lat_tibia_r.femur_lat_r.force.Y	femur_lat_tibia_r.femur_lat_r.force.Z	femur_lat_tibia_r.femur_lat_r.torque.X	femur_lat_tibia_r.femur_lat_r.torque.Y	femur_lat_tibia_r.femur_lat_r.torque.Z	aACL_R	pACL_R	aPCL_R	pPCL_R	aMCL_R	mMCL_R	pMCL_R	aLCL_R	mLCL_R	pLCL_R	aPCL_L	pPCL_L	aMCL_L	aLCL_L
      0.20961608	      9.71237906	      7.14838308	      7.67391957	      3.32183306	      3.89862952	      4.10629869	      0.00000000	    163.75007797	    180.95205127	    340.91636832	    122.30684709	      7.10160626	      5.16288336	      3.67708364	      3.10829322	      5.17166159	      3.24682708	      2.80097382	     92.57204376	      4.61342673	      7.01553305	      5.25870531	     25.34828616	     16.02409399	      4.55303051	      3.29426813	      5.57128693	     93.65399232	     40.54520427	     31.59831355	     56.09593962	      0.00000000	      0.00000000	      0.00000000	      0.00000000	      0.00000000	      0.00000000	     35.06182784	      1.69211365	      3.72079565	     23.50448219	     49.36232615	     11.69053133	      9.71237906	      7.14838308	      7.67391957	      3.32183306	      3.89862952	      4.10629869	     10.58735732	      5.24256550	     10.25933310	      9.06078238	      1.89667667	      7.10160626	      5.16288336	      3.67708364	      3.10829322	      5.17166159	      4.83034915	      2.80097382	      1.95287853	      4.61342673	      7.01553305	      5.25870531	     25.34828616	     16.02409399	      4.55303051	      3.29426813	      5.57128693	     14.19871948	      0.00000000	      0.00000000	      0.00000000	     19.32806089	      9.02900106	     42.97375268	     47.27219139	      4.17463266	      3.63628958	     11.12565864	      5.88686363	     15.82784524	      2.47869337	      7.87000820	      2.52073729	     31.25686507	     31.25686507	     11.47153813	     11.47153813	     29.02771530	     29.02771530	    191.35307446	    114.00783815	      7.97552721	     -5.77800958	      4.42494834	     76.02509473	   -191.35307446	   -114.00783815	     -7.97552721	      2.92404004	     -5.12985364	      2.52527046	      0.04004361	      0.00113955	     -0.02521969	      0.01004296	     -0.00062393	      0.01591748	     -0.04004361	     -0.00113955	      0.02521969	     -0.00009464	      0.00120523	     -0.00009536	   -885.23356479	   -365.35273771	    311.83292317	     -8.25549821	     21.78217421	      2.26294768	    885.23356479	    365.35273771	   -311.83292317	    132.16020926	    -15.59106745	    356.73233006	   -283.20835647	   -127.07828576	    -75.81735889	      4.10474096	     -9.70477141	      0.93451505	    283.20835647	    127.07828576	     75.81735889	    -33.67880912	      6.92644147	    114.19332337	      1.20517920	      0.00000000	    962.27973459	    607.57185787	     24.78982772	     11.05656378	      0.00000000	      0.00000000	      0.00000000	      0.00000000	      0.00000000	      0.00000000	      0.00000001	      0.00000000
      0.20966950	      9.71086354	      7.14734754	      7.67279414	      3.32137210	      3.89812735	      4.10565799	      0.00000000	    163.77723812	    181.01940375	    340.99532768	    122.31014007	      7.10056536	      5.16217359	      3.67655482	      3.10783477	      5.17083024	      3.24649680	      2.80058246	     92.57930130	      4.61275703	      7.01451196	      5.25792689	     25.34639106	     16.02193853	      4.55238479	      3.29395742	      5.57045632	     95.25443218	     40.55912689	     31.66590542	     56.11387208	      0.00000000	      0.00000000	      0.00000000	      0.00000000	      0.00000000	      0.00000000	     35.06116525	      1.68738786	      3.71563300	     23.49046913	     49.33674585	     11.68360836	      9.71086354	      7.14734754	      7.67279414	      3.32137210	      3.89812735	      4.10565799	     10.58823772	      5.24175236	     10.25757084	      9.05949615	      1.89641471	      7.10056536	      5.16217359	      3.67655482	      3.10783477	      5.17083024	      4.82983465	      2.80058246	      1.95260403	      4.61275703	      7.01451196	      5.25792689	     25.34639106	     16.02193853	      4.55238479	      3.29395742	      5.57045632	     14.19626959	      0.00000000	      0.00000000	      0.00000000	     19.32550828	      9.02773574	     42.96617775	     47.26887320	      4.17303586	      3.63486684	     11.12379924	      5.88580647	     15.82566801	      2.47836077	      7.86925660	      2.52051513	     31.25251780	     31.25251780	     11.46980668	     11.46980668	     29.02615431	     29.02615431	    191.27648238	    113.74160978	      8.02594508	     -5.79196843	      4.42353732	     75.99556655	   -191.27648238	   -113.74160978	     -8.02594508	      2.91754041	     -5.12997545	      2.52003319	      0.03974341	      0.00111118	     -0.02500375	      0.00995666	     -0.00061903	      0.01579813	     -0.03974341	     -0.00111118	      0.02500375	     -0.00009330	      0.00119530	     -0.00009473	   -885.42368908	   -364.51269358	    312.07204866	     -8.24151969	     21.79170283	      2.24546548	    885.42368908	    364.51269358	   -312.07204866	    132.24235660	    -15.59445216	    356.81346172	   -283.38608295	   -126.92733677	    -76.02203757	      4.10272573	     -9.71816235	      0.93192196	    283.38608295	    126.92733677	     76.02203757	    -33.75850134	      6.93295972	    114.26562756	      1.29199764	      0.00000000	    962.62759804	    607.68561117	     24.83016985	     11.06784620	      0.00000000	      0.00000000	      0.00000000	      0.00000000	      0.00000000	      0.00000000	      0.00000001	      0.00000000
      0.20979618	      9.70727425	      7.14489503	      7.67012874	      3.32028039	      3.89693806	      4.10414059	      0.00000000	    163.84816755	    181.18597458	    341.21324045	    122.32270287	      7.09810015	      5.16049260	      3.67530238	      3.10674901	      5.16886135	      3.24571021	      2.79965559	     92.60079072	      4.61117095	      7.01209369	      5.25608335	     25.34190286	     16.01683377	      4.55085550	      3.29322158	      5.56848769	     98.36256771	     40.59502129	     31.78587447	     56.15884205	      0.00000000	      0.00000000	      0.00000000	      0.00000000	      0.00000000	      0.00000000	     35.05923775	      1.67620701	      3.70333474	     23.45816383	     49.27606396	     11.66718198	      9.70727425	      7.14489503	      7.67012874	      3.32028039	      3.89693806	      4.10414059	     10.59029124	      5.23982659	     10.25339690	      9.05644993	      1.89579428	      7.09810015	      5.16049260	      3.67530238	      3.10674901	      5.16886135	      4.82861614	      2.79965559	      1.95195393	      4.61117095	      7.01209369	      5.25608335	     25.34190286	     16.01683377	      4.55085550	      3.29322158	      5.56848769	     14.19046731	      0.00000000	      0.00000000	      0.00000000	     19.31945612	      9.02473614	     42.94823324	     47.26101395	      4.16925302	      3.63149751	     11.11939544	      5.88330263	     15.82051074	      2.47757307	      7.86747356	      2.51998765	     31.24222191	     31.24222191	     11.46570606	     11.46570606	     29.02245741	     29.02245741	    191.09871421	    112.91824132	      7.99113852	     -5.75917882	      4.41793566	     75.92825811	   -191.09871421	   -112.91824132	     -7.99113852	      2.89661297	     -5.12382785	      2.50121170	      0.03900303	      0.00107122	     -0.02447818	      0.00974692	     -0.00060699	      0.01550356	     -0.03900303	     -0.00107122	      0.02447818	     -0.00009030	      0.00117105	     -0.00009221	   -885.89201352	   -363.00034190	    312.30105292	     -8.21128956	     21.80110945	      2.22342057	    885.89201352	    363.00034190	   -312.30105292	    132.30800989	    -15.59847675	    357.00640010	   -283.97700036	   -125.94972978	    -76.10882562	      4.07799691	     -9.73766835	      0.89861346	    283.97700036	    125.94972978	     76.10882562	    -33.77195198	      6.94654224	    114.51430741	      1.41349697	      0.00000000	    963.48723156	    608.07668154	     24.87979927	     11.07603397	      0.00000000	      0.00000000	      0.00000000	      0.00000000	      0.00000000	      0.00000000	      0.00000001	      0.00000000
      0.20983648	      9.70613357	      7.14411562	      7.66928169	      3.31993345	      3.89656010	      4.10365837	      0.00000000	    163.87217037	    181.24038305	    341.28823193	    122.32761269	      7.09731672	      5.15995838	      3.67490435	      3.10640396	      5.16823565	      3.24545931	      2.79936103	     92.60849023	      4.61066690	      7.01132517	      5.25549747	     25.34047653	     16.01521151	      4.55036949	      3.29298773	      5.56786163	     99.25704615	     40.60696741	     31.81694524	     56.17335763	      0.00000000	      0.00000000	      0.00000000	      0.00000000	      0.00000000	      0.00000000	     35.05856045	      1.67265298	      3.69939991	     23.44806119	     49.25677824	     11.66196175	      9.70613357	      7.14411562	      7.66928169	      3.31993345	      3.89656010	      4.10365837	     10.59093459	      5.23921459	     10.25207033	      9.05548184	      1.89559711	      7.09731672	      5.15995838	      3.67490435	      3.10640396	      5.16823565	      4.82822890	      2.79936103	      1.95174733	      4.61066690	      7.01132517	      5.25549747	     25.34047653	     16.01521151	      4.55036949	      3.29298773	      5.56786163	     14.18862332	      0.00000000	      0.00000000	      0.00000000	     19.31753077	      9.02378203	     42.94252918	     47.25851611	      4.16805052	      3.63042680	     11.11799589	      5.88250687	     15.81887152	      2.47732275	      7.86690603	      2.51981962	     31.23894988	     31.23894988	     11.46440290	     11.46440290	     29.02128256	     29.02128256	    191.10622897	    112.89137186	      8.09297164	     -5.79961335	      4.41864739	     75.93026043	   -191.10622897	   -112.89137186	     -8.09297164	      2.89689152	     -5.12759067	      2.50345085	      0.03876587	      0.00106412	     -0.02431201	      0.00968067	     -0.00060315	      0.01540916	     -0.03876587	     -0.00106412	      0.02431201	     -0.00008940	      0.00116336	     -0.00009121	   -886.11868380	   -362.30202783	    312.27945355	     -8.19756348	     21.80147195	      2.20694809	    886.11868380	    362.30202783	   -312.27945355	    132.28698310	    -15.59988225	    357.10199919	   -284.07511372	   -125.94651197	    -76.12492127	      4.07718855	     -9.74129812	      0.90170129	    284.07511372	    125.94651197	     76.12492127	    -33.77796540	      6.94883122	    114.55264508	      1.43599721	      0.00000000	    963.76762855	    608.22548673	     24.88616958	     11.07490993	      0.00000000	      0.00000000	      0.00000000	      0.00000000	      0.00000000	      0.00000000	      0.00000001	      0.00000000
